<svg width="255" height="185" viewBox="0 0 255 185" fill="none" xmlns="http://www.w3.org/2000/svg">
<g clip-path="url(#clip0_1956_58011)">
<path d="M200.417 16.6462C199.773 11.9034 198.965 6.81129 195.633 3.38757C194.576 2.30122 193.31 1.44107 191.913 0.858976C190.515 0.276877 189.015 -0.0151165 187.502 0.000602535C185.989 0.0163216 184.495 0.33943 183.11 0.950441C181.725 1.56145 180.477 2.44771 179.442 3.55579C177.017 6.15348 175.945 9.80104 175.847 13.3602C175.749 16.9194 176.539 20.439 177.415 23.8893C182.051 23.9822 186.652 23.073 190.907 21.2234C191.95 20.7125 193.031 20.2861 194.142 19.9485C195.266 19.6613 196.067 20.384 197.113 20.888L197.687 19.7847C198.157 20.6625 199.611 20.4023 200.139 19.5583C200.667 18.7143 200.551 17.6335 200.417 16.6462Z" fill="#161828"/>
<path d="M181.055 36.6717L182.397 29.7886L172.333 25.4148L154.341 16.7616C154.215 15.9587 153.85 15.2129 153.293 14.6229C152.736 14.0329 152.014 13.6265 151.222 13.4574C150.43 13.2884 149.606 13.3646 148.858 13.6762C148.11 13.9877 147.474 14.5197 147.034 15.202C146.594 15.8842 146.371 16.6845 146.394 17.4969C146.417 18.3093 146.685 19.0956 147.163 19.7518C147.641 20.4079 148.306 20.903 149.07 21.1715C149.834 21.4401 150.661 21.4694 151.442 21.2556L168.574 31.8688L181.055 36.6717Z" fill="#FFB8B8"/>
<path d="M174.299 35.5072L181.589 28.0269L181.733 28.0709C181.823 28.0984 190.88 30.8701 196.654 33.6866C197.306 33.9807 197.887 34.4141 198.356 34.9566C198.824 35.4992 199.169 36.1378 199.367 36.828C199.654 37.7944 199.654 38.8239 199.367 39.7903C199.079 40.7566 198.517 41.6177 197.749 42.2678C196.959 42.9773 195.983 43.4435 194.937 43.6107C193.89 43.778 192.818 43.6391 191.848 43.2109L174.299 35.5072Z" fill="#6457A6"/>
<path d="M174.277 68.3939L194.774 73.8922L198.913 54.4542L180.1 48.6084L174.277 68.3939Z" fill="#FFB8B8"/>
<path d="M197.068 63.1182L177.045 58.4956L173.211 49.1666C172.899 47.835 172.974 46.4414 173.429 45.1517C173.883 43.8621 174.698 42.7308 175.775 41.8925L183.09 35.6922L187.012 30.663L186.585 27.9978C186.509 27.4651 186.62 26.9224 186.9 26.4634C187.18 26.0044 187.611 25.658 188.118 25.484L193.345 23.6024C193.923 23.3855 194.561 23.3971 195.131 23.6349C195.7 23.8727 196.159 24.3189 196.413 24.8831L196.967 26.17C196.967 26.17 199.33 27.2865 200.663 27.9145C201.349 28.2275 201.961 28.6823 202.459 29.2492C202.958 29.8162 203.331 30.4824 203.556 31.2042C205.595 37.8211 205.045 44.9695 202.018 51.1936L197.068 63.1182Z" fill="#6457A6"/>
<path d="M18.9936 162.149L9.31213 159.548C7.88861 154.461 7.72357 149.102 8.83134 143.937C13.0551 152.319 24.3988 153.899 31.1188 160.435C33.1991 162.489 34.7922 164.988 35.78 167.745C36.7678 170.501 37.125 173.446 36.825 176.36L39.1443 183.105C34.4367 182.918 29.8255 181.709 25.6283 179.561C21.4311 177.412 17.7477 174.376 14.8319 170.662C13.2167 168.561 11.8714 166.265 10.8278 163.828C14.8789 163.232 18.9936 162.149 18.9936 162.149Z" fill="#F2F2F2"/>
<path d="M139.275 185H44.3835C41.8404 184.997 39.4023 183.982 37.6041 182.177C35.8059 180.372 34.7944 177.924 34.7915 175.371V49.2403C34.7944 46.6874 35.8059 44.24 37.6041 42.4348C39.4023 40.6296 41.8404 39.6142 44.3835 39.6113H139.275C141.818 39.6142 144.256 40.6296 146.054 42.4348C147.852 44.2399 148.864 46.6874 148.867 49.2403V175.371C148.864 177.924 147.852 180.372 146.054 182.177C144.256 183.982 141.818 184.997 139.275 185Z" fill="#E6E6E6"/>
<path d="M103.057 177.193H51.0536C48.738 177.19 46.5181 176.265 44.8807 174.622C43.2434 172.978 42.3224 170.75 42.3198 168.425V56.1859C42.3224 53.8614 43.2434 51.6329 44.8808 49.9893C46.5181 48.3456 48.738 47.4211 51.0536 47.4185H132.604C134.92 47.4211 137.14 48.3456 138.777 49.9893C140.415 51.6329 141.336 53.8614 141.338 56.1859V138.764C141.327 148.953 137.29 158.72 130.113 165.925C122.937 173.129 113.207 177.181 103.057 177.193Z" fill="white"/>
<path d="M124.469 68.9663H59.1889C58.9093 68.9667 58.6324 68.9117 58.374 68.8046C58.1155 68.6976 57.8806 68.5404 57.6827 68.3422C57.4848 68.144 57.3276 67.9086 57.2203 67.6494C57.113 67.3903 57.0576 67.1124 57.0573 66.8318C57.0569 66.5511 57.1116 66.2731 57.2183 66.0137C57.325 65.7543 57.4815 65.5185 57.6789 65.3198C57.8764 65.121 58.1109 64.9633 58.3691 64.8556C58.6272 64.7479 58.904 64.6922 59.1836 64.6919H124.469C125.034 64.6912 125.576 64.9157 125.975 65.316C126.375 65.7163 126.6 66.2596 126.601 66.8264C126.602 67.3932 126.378 67.9371 125.979 68.3384C125.58 68.7397 125.039 68.9656 124.475 68.9663H124.469Z" fill="#6457A6"/>
<path d="M124.469 77.4114H59.1888C58.6241 77.4114 58.0826 77.1862 57.6833 76.7854C57.284 76.3845 57.0597 75.8409 57.0597 75.274C57.0597 74.7072 57.284 74.1636 57.6833 73.7627C58.0826 73.3619 58.6241 73.1367 59.1888 73.1367H124.469C125.034 73.1367 125.575 73.3619 125.975 73.7627C126.374 74.1636 126.598 74.7072 126.598 75.274C126.598 75.8409 126.374 76.3845 125.975 76.7854C125.575 77.1862 125.034 77.4114 124.469 77.4114Z" fill="#6457A6"/>
<path d="M87.4863 85.8567H59.1888C58.6241 85.8567 58.0826 85.6315 57.6833 85.2307C57.284 84.8298 57.0597 84.2862 57.0597 83.7194C57.0597 83.1525 57.284 82.6089 57.6833 82.208C58.0826 81.8072 58.6241 81.582 59.1888 81.582H87.4863C88.0509 81.582 88.5925 81.8072 88.9918 82.208C89.3911 82.6089 89.6154 83.1525 89.6154 83.7194C89.6154 84.2862 89.3911 84.8298 88.9918 85.2307C88.5925 85.6315 88.0509 85.8567 87.4863 85.8567Z" fill="#6457A6"/>
<path d="M124.469 103.544H59.1889C58.6243 103.545 58.0825 103.32 57.6827 102.92C57.2829 102.52 57.058 101.976 57.0573 101.409C57.0565 100.843 57.2802 100.299 57.6789 99.8974C58.0777 99.4961 58.6189 99.2702 59.1836 99.2695H124.469C125.034 99.2688 125.576 99.4933 125.975 99.8936C126.375 100.294 126.6 100.837 126.601 101.404C126.602 101.971 126.378 102.515 125.979 102.916C125.58 103.317 125.039 103.543 124.475 103.544H124.469Z" fill="#E4E4E4"/>
<path d="M124.469 111.989H59.1888C58.6241 111.989 58.0826 111.764 57.6833 111.363C57.284 110.963 57.0597 110.419 57.0597 109.852C57.0597 109.285 57.284 108.742 57.6833 108.341C58.0826 107.94 58.6241 107.715 59.1888 107.715H124.469C125.034 107.715 125.575 107.94 125.975 108.341C126.374 108.742 126.598 109.285 126.598 109.852C126.598 110.419 126.374 110.963 125.975 111.363C125.575 111.764 125.034 111.989 124.469 111.989Z" fill="#E4E4E4"/>
<path d="M87.4863 120.434H59.1888C58.6241 120.434 58.0826 120.209 57.6833 119.808C57.284 119.407 57.0597 118.864 57.0597 118.297C57.0597 117.73 57.284 117.187 57.6833 116.786C58.0826 116.385 58.6241 116.16 59.1888 116.16H87.4863C88.0509 116.16 88.5925 116.385 88.9918 116.786C89.3911 117.187 89.6154 117.73 89.6154 118.297C89.6154 118.864 89.3911 119.407 88.9918 119.808C88.5925 120.209 88.0509 120.434 87.4863 120.434Z" fill="#E4E4E4"/>
<path d="M124.469 138.122H59.1889C58.6243 138.123 58.0825 137.898 57.6827 137.498C57.2829 137.098 57.058 136.554 57.0573 135.988C57.0565 135.421 57.2802 134.877 57.6789 134.476C58.0777 134.074 58.6189 133.848 59.1836 133.848H124.469C125.034 133.847 125.576 134.071 125.975 134.472C126.375 134.872 126.6 135.415 126.601 135.982C126.602 136.549 126.378 137.093 125.979 137.494C125.58 137.895 125.039 138.121 124.475 138.122H124.469Z" fill="#E4E4E4"/>
<path d="M124.469 146.567H59.1888C58.6241 146.567 58.0826 146.342 57.6833 145.941C57.284 145.54 57.0597 144.997 57.0597 144.43C57.0597 143.863 57.284 143.319 57.6833 142.918C58.0826 142.518 58.6241 142.292 59.1888 142.292H124.469C125.034 142.292 125.575 142.518 125.975 142.918C126.374 143.319 126.598 143.863 126.598 144.43C126.598 144.997 126.374 145.54 125.975 145.941C125.575 146.342 125.034 146.567 124.469 146.567Z" fill="#E4E4E4"/>
<path d="M87.4863 155.012H59.1889C58.6249 155.011 58.0844 154.786 57.686 154.385C57.2876 153.984 57.0638 153.441 57.0638 152.875C57.0638 152.309 57.2876 151.766 57.686 151.365C58.0844 150.965 58.6249 150.739 59.1889 150.738H87.4863C88.0503 150.739 88.5908 150.965 88.9892 151.365C89.3876 151.766 89.6114 152.309 89.6114 152.875C89.6114 153.441 89.3876 153.984 88.9892 154.385C88.5908 154.786 88.0503 155.011 87.4863 155.012Z" fill="#E4E4E4"/>
<path d="M144.181 69.8487C159.467 69.8487 171.859 57.4091 171.859 42.064C171.859 26.7189 159.467 14.2793 144.181 14.2793C128.895 14.2793 116.503 26.7189 116.503 42.064C116.503 57.4091 128.895 69.8487 144.181 69.8487Z" fill="#6457A6"/>
<path opacity="0.7" d="M144.181 65.9998C137.178 65.9989 130.437 63.3332 125.314 58.5401C120.192 53.747 117.071 47.1829 116.579 40.1709C116.534 40.8177 116.503 41.4684 116.503 42.1267C116.505 49.4939 119.423 56.5584 124.613 61.7667C129.803 66.9751 136.842 69.901 144.181 69.901C151.52 69.901 158.558 66.9751 163.748 61.7667C168.939 56.5584 171.856 49.4939 171.859 42.1267C171.859 41.4684 171.828 40.8177 171.783 40.1709C171.291 47.1829 168.169 53.747 163.047 58.5401C157.925 63.3332 151.183 65.9989 144.181 65.9998Z" fill="#292647"/>
<path d="M144.181 55.642C143.262 55.6409 142.381 55.274 141.731 54.6216C141.081 53.9693 140.716 53.0849 140.715 52.1623V32.0287C140.714 31.5714 140.803 31.1186 140.977 30.696C141.151 30.2734 141.407 29.8894 141.729 29.5659C142.05 29.2424 142.433 28.9857 142.854 28.8106C143.274 28.6355 143.725 28.5454 144.181 28.5454C144.636 28.5454 145.087 28.6355 145.508 28.8106C145.929 28.9857 146.311 29.2424 146.633 29.5659C146.955 29.8894 147.21 30.2734 147.384 30.696C147.558 31.1186 147.648 31.5714 147.647 32.0287V52.1623C147.646 53.0848 147.281 53.9693 146.631 54.6216C145.981 55.274 145.1 55.6409 144.181 55.642Z" fill="white"/>
<path d="M130.686 42.0959C130.687 41.1733 131.053 40.2889 131.703 39.6366C132.353 38.9842 133.234 38.6173 134.153 38.6162H154.209C154.664 38.6157 155.116 38.7054 155.537 38.88C155.957 39.0547 156.34 39.3109 156.662 39.634C156.985 39.9572 157.24 40.3409 157.415 40.7633C157.589 41.1858 157.679 41.6385 157.679 42.0958C157.679 42.553 157.589 43.0058 157.415 43.4282C157.24 43.8506 156.985 44.2344 156.662 44.5575C156.34 44.8807 155.957 45.1369 155.537 45.3115C155.116 45.4862 154.664 45.5758 154.209 45.5754H134.153C133.234 45.5743 132.353 45.2074 131.703 44.5551C131.053 43.9028 130.687 43.0184 130.686 42.0959Z" fill="white"/>
<path d="M185.788 47.9997L179.898 44.2266L172.16 52.028L157.553 65.6697C156.763 65.493 155.938 65.5613 155.187 65.8656C154.436 66.1698 153.795 66.6957 153.349 67.3737C152.902 68.0516 152.671 68.8497 152.686 69.6623C152.701 70.4749 152.962 71.2637 153.433 71.9245C153.905 72.5852 154.565 73.0867 155.326 73.3627C156.088 73.6386 156.915 73.6759 157.698 73.4697C158.481 73.2636 159.183 72.8236 159.712 72.208C160.241 71.5924 160.571 70.8302 160.658 70.0222L176.767 57.9021L185.788 47.9997Z" fill="#FFB8B8"/>
<path d="M182.236 53.8848L177.969 44.3374L178.062 44.2189C178.121 44.1444 184.005 36.6977 188.729 32.3348C189.241 31.8328 189.855 31.4488 190.529 31.2097C191.204 30.9705 191.922 30.8819 192.634 30.95C193.635 31.0356 194.589 31.4125 195.38 32.0346C196.171 32.6567 196.763 33.4969 197.085 34.4521C197.454 35.4493 197.529 36.5319 197.301 37.5707C197.073 38.6094 196.552 39.5603 195.8 40.3097L182.236 53.8848Z" fill="#6457A6"/>
<path d="M186.09 22.5038C191.204 22.5038 195.35 18.3422 195.35 13.2087C195.35 8.07513 191.204 3.91357 186.09 3.91357C180.977 3.91357 176.831 8.07513 176.831 13.2087C176.831 18.3422 180.977 22.5038 186.09 22.5038Z" fill="#FFB8B8"/>
<path d="M171.705 178.342H167.877L166.055 163.521H171.705V178.342Z" fill="#FFB8B8"/>
<path d="M173.725 185H170.98L170.49 182.398L169.235 185H161.954C161.605 185 161.265 184.888 160.984 184.68C160.703 184.473 160.496 184.18 160.392 183.846C160.288 183.511 160.293 183.152 160.407 182.821C160.521 182.49 160.737 182.204 161.024 182.005L166.838 177.974V175.344L172.954 175.71L173.725 185Z" fill="#161828"/>
<path d="M219.68 175.078L216.124 176.499L208.971 163.405L214.22 161.307L219.68 175.078Z" fill="#FFB8B8"/>
<path d="M224.01 180.514L221.46 181.533L220.046 179.297L219.838 182.181L213.074 184.884C212.75 185.013 212.393 185.035 212.055 184.947C211.717 184.858 211.417 184.664 211.197 184.392C210.977 184.119 210.85 183.784 210.834 183.434C210.818 183.084 210.913 182.738 211.107 182.446L215.023 176.543L214.054 174.099L219.871 172.169L224.01 180.514Z" fill="#161828"/>
<path d="M173.181 171.533H165.263L167.451 134.19L165.852 108.878L165.855 108.858L171.821 72.5748C172.291 69.7137 173.559 67.0449 175.479 64.8785L175.552 64.7964L195.519 69.7468L197.526 74.342C204.381 78.4349 206.546 101.514 206.635 102.497L209.537 131.269L216.636 166.531L211.637 169.233L211.553 169.066L195.771 137.561L185.803 104.337L179.42 134.239L173.181 171.533Z" fill="#161828"/>
<path d="M197.558 13.6461C197.23 11.4856 196.888 9.30692 196.118 7.27254C195.348 5.23815 194.108 3.33264 192.328 2.18019C189.51 0.355563 185.861 0.70747 182.702 1.75704C180.258 2.56874 177.873 3.80244 176.15 5.78583C174.427 7.76923 173.459 10.5993 174.1 13.1927C177.47 12.3933 180.841 11.594 184.211 10.7947L183.842 11.0564C184.948 11.6103 185.915 12.41 186.668 13.3948C187.42 14.3796 187.94 15.5237 188.186 16.7401C188.427 17.9713 188.393 19.2408 188.085 20.457C187.777 21.6731 187.204 22.8053 186.407 23.7718C188.705 22.9533 191.004 22.1348 193.303 21.3163C194.721 20.811 196.24 20.2289 197.081 18.933C198.056 17.4306 197.83 15.4392 197.558 13.6461Z" fill="#161828"/>
<path d="M0.48543 184.911H254.515C254.643 184.911 254.767 184.859 254.858 184.768C254.949 184.677 255 184.553 255 184.423C255 184.294 254.949 184.17 254.858 184.079C254.767 183.987 254.643 183.936 254.515 183.936H0.48543C0.356684 183.936 0.233218 183.987 0.14218 184.079C0.0511429 184.17 0 184.294 0 184.423C0 184.553 0.0511429 184.677 0.14218 184.768C0.233218 184.859 0.356684 184.911 0.48543 184.911Z" fill="#CCCCCC"/>
</g>
<defs>
<clipPath id="clip0_1956_58011">
<rect width="255" height="185" fill="white"/>
</clipPath>
</defs>
</svg>
