<svg width="254" height="139" viewBox="0 0 254 139" fill="none" xmlns="http://www.w3.org/2000/svg">
<path d="M254 129.453H0V130.227H254V129.453Z" fill="#161828"/>
<path d="M182.745 42.9061C180.393 28.8057 168.137 18.0605 153.371 18.0605H92.9846C78.2244 18.0605 65.9705 28.7971 63.6104 42.8889C63.338 44.5005 63.1974 46.158 63.1974 47.8471V100.46C63.1974 102.149 63.338 103.804 63.6104 105.416C65.4888 116.643 73.6503 125.742 84.3585 128.974C87.0886 129.799 89.985 130.244 92.9846 130.244H153.371C156.37 130.244 159.267 129.799 161.997 128.974C172.708 125.739 180.872 116.634 182.745 105.398C183.014 103.793 183.155 102.144 183.155 100.46V47.8471C183.155 46.1638 183.014 44.512 182.745 42.9061H182.745ZM158.481 128.974C156.82 129.269 155.114 129.424 153.371 129.424H92.9846C91.241 129.424 89.5347 129.269 87.8743 128.974C74.3156 126.562 64.0205 114.713 64.0205 100.46V82.9962C64.0205 33.6492 104.023 18.8836 153.371 18.8836C169.367 18.8836 182.335 31.8512 182.335 47.8471V100.46C143.503 105.657 172.04 126.562 158.481 128.974H158.481V128.974Z" fill="#161828"/>
<path d="M129.032 119.503C147.209 119.503 161.944 104.769 161.944 86.5925C161.944 68.4163 147.209 53.6816 129.032 53.6816C110.856 53.6816 96.1206 68.4163 96.1206 86.5925C96.1206 104.769 110.856 119.503 129.032 119.503Z" fill="#6457A6"/>
<path d="M148.752 83.9517H144.661C144.024 80.201 142.06 76.8042 139.127 74.3815C132.376 68.806 122.384 69.7584 116.808 76.5087C116.789 76.5303 116.771 76.5524 116.754 76.5751C116.308 77.1526 116.415 77.9819 116.993 78.4274C117.57 78.873 118.399 78.766 118.845 78.1886C121.267 75.2541 124.933 73.3868 129.032 73.3868C135.308 73.3875 140.717 77.8032 141.974 83.9517H138.367C138.212 83.9517 138.063 84.0059 137.944 84.1046C137.664 84.338 137.626 84.7544 137.859 85.0346L143.052 91.2679C143.078 91.2984 143.106 91.3266 143.136 91.3521C143.416 91.5857 143.833 91.5479 144.066 91.2679L149.259 85.0346C149.358 84.916 149.412 84.7666 149.412 84.6122C149.412 84.2476 149.117 83.9518 148.752 83.9517V83.9517Z" fill="white"/>
<path d="M141.072 94.7585C140.494 94.313 139.665 94.42 139.22 94.9974C137.298 97.3236 134.639 98.9221 131.683 99.5272C124.535 100.991 117.553 96.3824 116.09 89.2343H119.698C120.063 89.2341 120.358 88.9384 120.358 88.5737C120.358 88.4194 120.304 88.27 120.205 88.1514L115.012 81.9181C114.779 81.638 114.362 81.6003 114.082 81.8339C114.052 81.8593 114.023 81.8875 113.998 81.9181L108.805 88.1514C108.572 88.4316 108.61 88.848 108.89 89.0813C109.009 89.1801 109.158 89.2342 109.312 89.2343H113.404C114.04 92.9851 116.004 96.3818 118.938 98.8045C125.688 104.38 135.68 103.428 141.256 96.6773C141.275 96.6557 141.293 96.6335 141.311 96.6108C141.756 96.0334 141.649 95.2041 141.072 94.7585H141.072V94.7585Z" fill="white"/>
</svg>
